<svg width="21" height="21" viewBox="0 0 21 21" fill="none" xmlns="http://www.w3.org/2000/svg">
<path d="M20.2006 15.5031V18.5031C20.2017 18.7816 20.1447 19.0573 20.0331 19.3125C19.9216 19.5676 19.7579 19.7967 19.5527 19.985C19.3475 20.1732 19.1052 20.3166 18.8414 20.4058C18.5775 20.495 18.298 20.5282 18.0206 20.5031C14.9435 20.1687 11.9876 19.1173 9.39062 17.4331C6.97444 15.8978 4.92595 13.8493 3.39062 11.4331C1.70059 8.82431 0.64886 5.8541 0.320617 2.7631C0.295627 2.48657 0.328492 2.20786 0.417117 1.94473C0.505743 1.68159 0.648188 1.43979 0.835383 1.23473C1.02258 1.02966 1.25042 0.865814 1.50441 0.753627C1.75839 0.641439 2.03296 0.583366 2.31062 0.583105H5.31062C5.79592 0.578328 6.26641 0.750183 6.63438 1.06664C7.00235 1.38309 7.24269 1.82255 7.31062 2.3031C7.43724 3.26317 7.67207 4.20583 8.01062 5.1131C8.14516 5.47103 8.17428 5.86002 8.09452 6.23398C8.01477 6.60795 7.82948 6.95122 7.56062 7.2231C6.81046 7.97326 6.63969 9.14371 7.26409 10.0014C8.24616 11.3504 9.43335 12.5376 10.7823 13.5196C11.64 14.144 12.8105 13.9733 13.5606 13.2231C13.8325 12.9542 14.1758 12.769 14.5497 12.6892C14.9237 12.6094 15.3127 12.6386 15.6706 12.7731C16.5779 13.1117 17.5206 13.3465 18.4806 13.4731C18.9664 13.5416 19.41 13.7863 19.7271 14.1606C20.0443 14.5349 20.2128 15.0127 20.2006 15.5031Z" fill="#2666B5"/>
</svg>
